<svg width="500" height="500" viewBox="0 0 500 500" fill="none" xmlns="http://www.w3.org/2000/svg">
<path d="M33.7682 311.964C24.5012 406.694 107.133 421.366 149.606 421.366L250 416.218V320.973V199.987V79C177.923 79 129.871 105.6 114.855 118.9C63.3717 100.366 28.1911 115.468 17.0362 125.335C16.0065 157.255 37.2006 194.409 47.9264 208.996C35.0555 234.738 35.0555 268.203 35.0555 284.935C35.0555 298.321 34.1973 308.531 33.7682 311.964Z" fill="white" stroke="#4A2E16" stroke-width="5.14837" stroke-linecap="round" stroke-linejoin="round"/>
<circle cx="166.34" cy="301.667" r="19.3064" fill="#582201"/>
<path d="M224.258 314.538C222.541 315.825 219.624 319.429 221.683 323.548C224.258 328.696 229.407 331.27 235.842 327.409C242.277 323.548 242.277 320.974 248.713 320.974" stroke="#5F2800" stroke-width="5.14837" stroke-linecap="round" stroke-linejoin="round"/>
<path d="M466.232 311.964C475.499 406.694 392.867 421.366 350.394 421.366L250 416.218V320.973V199.987V79C322.077 79 370.129 105.6 385.145 118.9C436.628 100.366 471.809 115.468 482.964 125.335C483.993 157.255 462.799 194.409 452.074 208.996C464.945 234.738 464.945 268.203 464.945 284.935C464.945 298.321 465.803 308.531 466.232 311.964Z" fill="white" stroke="#4A2E16" stroke-width="5.14837" stroke-linecap="round" stroke-linejoin="round"/>
<circle cx="19.3064" cy="19.3064" r="19.3064" transform="matrix(-1 0 0 1 352.968 282.36)" fill="#582201"/>
<path d="M256.399 81.5742H246.103V318.399H256.399V81.5742Z" fill="white"/>
<path d="M256.399 323.547H246.103V413.643H256.399V323.547Z" fill="white"/>
<path d="M275.743 314.538C277.459 315.825 280.376 319.429 278.317 323.548C275.743 328.696 270.594 331.27 264.158 327.409C257.723 323.548 257.723 320.974 251.288 320.974" stroke="#5F2800" stroke-width="5.14837" stroke-linecap="round" stroke-linejoin="round"/>
</svg>
