<svg width="500" height="500" viewBox="0 0 500 500" fill="none" xmlns="http://www.w3.org/2000/svg">
<g clip-path="url(#clip0_227_43)">
<path d="M102.155 390.752C134.414 470.848 207.043 448.011 241.213 430.205L319.823 383.975L279.893 307.35L229.172 210.015L178.451 112.68C120.464 142.897 92.9577 184.441 86.4529 201.436C37.2637 208.109 15.2917 235.007 10.4543 247.623C23.0077 273.734 55.6346 294.74 70.3789 301.979C70.8159 328.084 84.8451 355.006 91.8598 368.468C97.4715 379.237 101.062 387.811 102.155 390.752Z" fill="white" stroke="#4A2E16" stroke-width="4.67053" stroke-linecap="round" stroke-linejoin="round"/>
<circle cx="204.494" cy="326.89" r="17.5145" transform="rotate(-27.524 204.494 326.89)" fill="#582201"/>
<path d="M256.485 312.965C255.644 314.72 254.808 318.842 258.191 321.292C262.42 324.355 267.642 324.267 271.201 318.463C274.759 312.659 273.68 310.588 278.858 307.89" stroke="#5F2800" stroke-width="4.67053" stroke-linecap="round" stroke-linejoin="round"/>
<path d="M450.076 209.451C497.245 281.778 436.919 328.224 402.748 346.03L319.822 383.976L279.893 307.35L229.172 210.015L178.451 112.68C236.437 82.4636 286.247 83.719 303.903 88.1238C337.552 51.6295 372.186 49.0303 385.297 52.2925C399.508 77.5407 398.033 116.317 395.519 132.549C416.666 147.862 430.695 174.785 437.71 188.246C443.321 199.015 448.292 206.87 450.076 209.451Z" fill="white" stroke="#4A2E16" stroke-width="4.67053" stroke-linecap="round" stroke-linejoin="round"/>
<circle cx="17.5145" cy="17.5145" r="17.5145" transform="matrix(-0.886817 0.46212 0.46212 0.886817 346.543 233.118)" fill="#582201"/>
<path d="M184.678 112.069L176.395 116.386L275.679 306.914L283.962 302.597L184.678 112.069Z" fill="white"/>
<path d="M286.12 306.737L277.836 311.054L315.608 383.537L323.891 379.22L286.12 306.737Z" fill="white"/>
<path d="M297.906 291.381C299.826 291.697 303.684 293.373 303.754 297.55C303.841 302.771 300.778 307.001 293.982 306.592C287.186 306.184 286.106 304.113 280.929 306.811" stroke="#5F2800" stroke-width="4.67053" stroke-linecap="round" stroke-linejoin="round"/>
</g>
<defs>
<clipPath id="clip0_227_43">
<rect width="500" height="500" fill="white"/>
</clipPath>
</defs>
</svg>
