<svg width="500" height="500" viewBox="0 0 500 500" fill="none" xmlns="http://www.w3.org/2000/svg">
<g clip-path="url(#clip0_227_54)">
<path d="M33.6116 260.771C4.16291 347.421 78.3023 379.278 118.065 388.592L213.179 405.787L234.065 316.622L260.596 203.359L287.127 90.0952C219.65 74.2895 168.833 88.6544 151.859 97.8125C107.726 69.1718 71.4797 75.5949 58.8731 82.3866C50.9095 112.043 62.6032 151.473 69.4455 167.481C51.7513 188.757 44.413 220.085 40.7438 235.749C37.8085 248.281 34.7659 257.652 33.6116 260.771Z" fill="white" stroke="#4A2E16" stroke-width="4.95018" stroke-linecap="round" stroke-linejoin="round"/>
<circle cx="159.979" cy="280.202" r="18.5632" transform="rotate(13.1833 159.979 280.202)" fill="#582201"/>
<path d="M211.377 304.952C209.488 305.781 205.966 308.515 206.991 312.822C208.272 318.206 212.528 321.745 219.399 319.542C226.271 317.338 226.835 314.928 232.86 316.34" stroke="#5F2800" stroke-width="4.95018" stroke-linecap="round" stroke-linejoin="round"/>
<path d="M438.469 355.604C426.372 446.319 345.797 441.935 306.035 432.621L213.179 405.786L234.065 316.621L260.596 203.358L287.127 90.0943C354.603 105.9 393.754 141.339 404.895 157.083C457.157 151.022 486.78 172.874 495.059 184.558C489.023 214.666 461.034 244.801 447.794 256.105C454.199 283.026 446.861 314.354 443.191 330.018C440.256 342.549 438.82 352.297 438.469 355.604Z" fill="white" stroke="#4A2E16" stroke-width="4.95018" stroke-linecap="round" stroke-linejoin="round"/>
<circle cx="18.5632" cy="18.5632" r="18.5632" transform="matrix(-0.973645 -0.228068 -0.228068 0.973645 338.927 303.053)" fill="#582201"/>
<path d="M292.553 93.9083L282.914 91.6504L230.981 313.358L240.62 315.616L292.553 93.9083Z" fill="white"/>
<path d="M239.491 320.434L229.852 318.176L210.094 402.521L219.734 404.779L239.491 320.434Z" fill="white"/>
<path d="M259.575 316.241C260.899 317.822 262.84 321.836 260.009 325.24C256.47 329.495 251.086 330.776 245.908 325.75C240.73 320.724 241.294 318.314 235.27 316.903" stroke="#5F2800" stroke-width="4.95018" stroke-linecap="round" stroke-linejoin="round"/>
</g>
<defs>
<clipPath id="clip0_227_54">
<rect width="500" height="500" fill="white"/>
</clipPath>
</defs>
</svg>
